<?xml version="1.0" encoding="UTF-8" standalone="no"?>
<!-- Created with Inkscape (http://www.inkscape.org/) -->

<svg
   xmlns:dc="http://purl.org/dc/elements/1.1/"
   xmlns:cc="http://creativecommons.org/ns#"
   xmlns:rdf="http://www.w3.org/1999/02/22-rdf-syntax-ns#"
   xmlns:svg="http://www.w3.org/2000/svg"
   xmlns="http://www.w3.org/2000/svg"
   xmlns:sodipodi="http://sodipodi.sourceforge.net/DTD/sodipodi-0.dtd"
   xmlns:inkscape="http://www.inkscape.org/namespaces/inkscape"
   width="210mm"
   height="297mm"
   viewBox="0 0 744.09448819 1052.3622047"
   id="svg2"
   version="1.1"
   inkscape:version="0.91 r13725"
   sodipodi:docname="iconset.svg">
  <defs
     id="defs4" />
  <sodipodi:namedview
     id="base"
     pagecolor="#ffffff"
     bordercolor="#666666"
     borderopacity="1.0"
     inkscape:pageopacity="0.0"
     inkscape:pageshadow="2"
     inkscape:zoom="0.98994949"
     inkscape:cx="206.41112"
     inkscape:cy="202.39236"
     inkscape:document-units="px"
     inkscape:current-layer="layer1"
     showgrid="false"
     inkscape:window-width="1280"
     inkscape:window-height="711"
     inkscape:window-x="345"
     inkscape:window-y="1081"
     inkscape:window-maximized="1" />
  <metadata
     id="metadata7">
    <rdf:RDF>
      <cc:Work
         rdf:about="">
        <dc:format>image/svg+xml</dc:format>
        <dc:type
           rdf:resource="http://purl.org/dc/dcmitype/StillImage" />
        <dc:title></dc:title>
      </cc:Work>
    </rdf:RDF>
  </metadata>
  <g
     inkscape:label="Camada 1"
     inkscape:groupmode="layer"
     id="layer1">
    <g
       id="g4421"
       inkscape:export-filename="/Users/mhama/cart.png"
       inkscape:export-xdpi="90"
       inkscape:export-ydpi="90">
      <rect
         ry="0.36967978"
         y="924.36224"
         x="0"
         height="128"
         width="128"
         id="rect4419"
         style="fill:#00acff;fill-opacity:0;stroke:none;stroke-width:2;stroke-miterlimit:4;stroke-dasharray:none;stroke-opacity:1" />
      <path
         sodipodi:nodetypes="sssssssssscccssssscccsssscccccssssssssssssssssssss"
         inkscape:connector-curvature="0"
         id="rect4252"
         d="M 16.288635,939.76829 C 15.039012,939.76829 14,940.80741 14,942.05688 l 0,1.46189 c 0,1.24972 1.039012,2.28857 2.288635,2.28857 l 25.195116,0 c 1.249596,0 2.288608,-1.03885 2.288608,-2.28857 l 0,-1.46189 c 0,-1.24947 -1.039012,-2.28859 -2.288608,-2.28859 z m 9.774576,10.70217 c -3.010854,0 -5.504834,2.47726 -5.504834,5.47949 -0.05936,20.70978 0.146085,36.70659 0.146085,56.21775 0,0.4055 0.13731,0.7712 0.327686,1.1039 0.250616,0.82 0.990773,1.4369 1.885351,1.4369 l 85.914431,0 c 1.09321,0 2.00129,-0.9082 2.00129,-2.0013 l 0,-1.3411 c 0,-1.0931 -0.90808,-2.0013 -2.00129,-2.0013 l -82.088287,0 0,-4.7485 81.856377,-10.0067 c 2.79666,-0.342 5.35359,-2.46559 5.35359,-5.47455 l 0,-33.1851 c 0,-3.00223 -2.49398,-5.47949 -5.50481,-5.47949 z m 0.806566,5.49962 81.543843,0 0,32.51482 -81.543843,9.7696 z m 8.988167,63.46162 c -5.849167,0 -10.692048,4.6789 -10.692048,10.4652 0,5.7867 4.842881,10.4653 10.692048,10.4653 5.849167,0 10.697081,-4.6786 10.697081,-10.4653 0,-5.7863 -4.84794,-10.4652 -10.697081,-10.4652 z m 60.13959,0 c -5.849141,0 -10.697081,4.6789 -10.697081,10.4652 -2.6e-5,5.7867 4.847914,10.4653 10.697081,10.4653 5.849166,0 10.697086,-4.6786 10.697086,-10.4653 0,-5.7863 -4.84794,-10.4652 -10.697086,-10.4652 z m -60.13959,4.3555 c 3.559061,0 6.341624,2.7426 6.341624,6.1097 0,3.3672 -2.782563,6.1098 -6.341624,6.1098 -3.559086,0 -6.33659,-2.7426 -6.33659,-6.1098 0,-3.3671 2.77753,-6.1097 6.33659,-6.1097 z m 60.13959,0 c 3.559056,0 6.341626,2.7426 6.341626,6.1097 0,3.3672 -2.78257,6.1098 -6.341626,6.1098 -3.55906,0 -6.341623,-2.7426 -6.341623,-6.1098 0,-3.3671 2.782563,-6.1097 6.341623,-6.1097 z"
         style="color:#000000;font-style:normal;font-variant:normal;font-weight:normal;font-stretch:normal;font-size:medium;line-height:normal;font-family:sans-serif;text-indent:0;text-align:start;text-decoration:none;text-decoration-line:none;text-decoration-style:solid;text-decoration-color:#000000;letter-spacing:normal;word-spacing:normal;text-transform:none;direction:ltr;block-progression:tb;writing-mode:lr-tb;baseline-shift:baseline;text-anchor:start;white-space:normal;clip-rule:nonzero;display:inline;overflow:visible;visibility:visible;opacity:1;isolation:auto;mix-blend-mode:normal;color-interpolation:sRGB;color-interpolation-filters:linearRGB;solid-color:#000000;solid-opacity:1;fill:#00acff;fill-opacity:1;fill-rule:nonzero;stroke:none;stroke-width:0.9794336;stroke-linecap:butt;stroke-linejoin:miter;stroke-miterlimit:4;stroke-dasharray:none;stroke-dashoffset:0;stroke-opacity:1;color-rendering:auto;image-rendering:auto;shape-rendering:auto;text-rendering:auto;enable-background:accumulate" />
    </g>
  </g>
</svg>
